<svg width="20" height="20" viewBox="0 0 20 20" fill="none" xmlns="http://www.w3.org/2000/svg">
<path d="M5.83301 6.53333C5.83301 5.41322 5.83301 4.85317 6.05099 4.42535C6.24274 4.04902 6.5487 3.74306 6.92503 3.55132C7.35285 3.33333 7.9129 3.33333 9.03301 3.33333H10.9663C12.0864 3.33333 12.6465 3.33333 13.0743 3.55132C13.4506 3.74306 13.7566 4.04902 13.9484 4.42535C14.1663 4.85317 14.1663 5.41322 14.1663 6.53333V16.6667L12.1256 14.8527C11.3734 14.184 10.9973 13.8497 10.5728 13.7228C10.1989 13.6109 9.80043 13.6109 9.42651 13.7228C9.00207 13.8497 8.62595 14.184 7.87371 14.8527L5.83301 16.6667V6.53333Z" stroke="#3C3C3C" stroke-linecap="round" stroke-linejoin="round"/>
</svg>
