<svg width="24" height="24" viewBox="0 0 24 24" fill="none" xmlns="http://www.w3.org/2000/svg">
<path d="M15.6613 8.28737C16.1553 8.04038 16.3555 7.43971 16.1085 6.94573C15.8616 6.45175 15.2609 6.25153 14.7669 6.49852L15.6613 8.28737ZM14.7669 17.5015C15.2609 17.7485 15.8616 17.5482 16.1085 17.0543C16.3555 16.5603 16.1553 15.9596 15.6613 15.7126L14.7669 17.5015ZM6 14C4.89543 14 4 13.1046 4 12H2C2 14.2091 3.79086 16 6 16V14ZM4 12C4 10.8954 4.89543 10 6 10V8C3.79086 8 2 9.79086 2 12H4ZM9.13108 11.5525L15.6613 8.28737L14.7669 6.49852L8.23665 9.76364L9.13108 11.5525ZM6 10C6.78153 10 7.46021 10.4481 7.78979 11.106L9.57795 10.2102C8.92246 8.90173 7.56744 8 6 8V10ZM7.78979 11.106C7.924 11.3739 8 11.6766 8 12H10C10 11.3586 9.84831 10.7498 9.57795 10.2102L7.78979 11.106ZM8.23665 14.2364L14.7669 17.5015L15.6613 15.7126L9.13108 12.4475L8.23665 14.2364ZM8 12C8 12.3234 7.924 12.6261 7.78979 12.894L9.57795 13.7898C9.84831 13.2502 10 12.6414 10 12H8ZM7.78979 12.894C7.46021 13.5519 6.78153 14 6 14V16C7.56744 16 8.92246 15.0983 9.57795 13.7898L7.78979 12.894ZM20 6C20 7.10457 19.1046 8 18 8V10C20.2091 10 22 8.20914 22 6H20ZM18 8C16.8954 8 16 7.10457 16 6H14C14 8.20914 15.7909 10 18 10V8ZM16 6C16 4.89543 16.8954 4 18 4V2C15.7909 2 14 3.79086 14 6H16ZM18 4C19.1046 4 20 4.89543 20 6H22C22 3.79086 20.2091 2 18 2V4ZM20 18C20 19.1046 19.1046 20 18 20V22C20.2091 22 22 20.2091 22 18H20ZM18 20C16.8954 20 16 19.1046 16 18H14C14 20.2091 15.7909 22 18 22V20ZM16 18C16 16.8954 16.8954 16 18 16V14C15.7909 14 14 15.7909 14 18H16ZM18 16C19.1046 16 20 16.8954 20 18H22C22 15.7909 20.2091 14 18 14V16Z" fill="black"/>
</svg>
