<svg width="20" height="20" viewBox="0 0 20 20" fill="none" xmlns="http://www.w3.org/2000/svg">
<g clip-path="url(#clip0_7_3998)">
<path d="M9.04862 4.59372C9.34797 3.67241 10.6514 3.67241 10.9507 4.59372L11.8332 7.3097C11.9671 7.72172 12.351 8.00068 12.7843 8.00068H15.64C16.6087 8.00068 17.0115 9.2403 16.2278 9.8097L13.9174 11.4883C13.567 11.7429 13.4203 12.1943 13.5542 12.6063L14.4366 15.3223C14.736 16.2436 13.6815 17.0097 12.8978 16.4403L10.5875 14.7617C10.237 14.5071 9.76238 14.5071 9.41189 14.7617L7.10154 16.4403C6.31783 17.0097 5.26335 16.2436 5.5627 15.3223L6.44517 12.6063C6.57905 12.1943 6.43239 11.7429 6.0819 11.4883L3.77155 9.8097C2.98784 9.2403 3.39062 8.00068 4.35934 8.00068H7.21509C7.64831 8.00068 8.03227 7.72172 8.16614 7.3097L9.04862 4.59372Z" stroke="#FF820F" stroke-linecap="round" stroke-linejoin="round"/>
</g>
<path d="M9.04959 4.59372C9.34895 3.67241 10.6524 3.67241 10.9517 4.59372L11.8342 7.3097C11.9681 7.72172 12.352 8.00068 12.7852 8.00068H15.641C16.6097 8.00068 17.0125 9.2403 16.2288 9.8097L13.9184 11.4883C13.5679 11.7429 13.4213 12.1943 13.5552 12.6063L14.4376 15.3223C14.737 16.2436 13.6825 17.0097 12.8988 16.4403L10.5884 14.7617C10.2379 14.5071 9.76335 14.5071 9.41286 14.7617L7.10252 16.4403C6.3188 17.0097 5.26432 16.2436 5.56368 15.3223L6.44615 12.6063C6.58002 12.1943 6.43337 11.7429 6.08288 11.4883L3.77253 9.8097C2.98882 9.2403 3.39159 8.00068 4.36032 8.00068H7.21606C7.64929 8.00068 8.03325 7.72172 8.16712 7.3097L9.04959 4.59372Z" fill="#FF820F" stroke="#FF820F" stroke-linecap="round" stroke-linejoin="round"/>
<defs>
<clipPath id="clip0_7_3998">
<rect width="20" height="20" fill="white"/>
</clipPath>
</defs>
</svg>
